<svg xmlns="http://www.w3.org/2000/svg" width="1200" height="620" viewBox="0 0 1200 620" role="img" aria-labelledby="figure-title figure-description">
  <title id="figure-title">Distributions of Study 003 promotion-filter scores</title>
  <desc id="figure-description">All 90 evaluated episodes are shown for novelty, repetition, association, emotional valence, and weighted score. Points distinguish promoted and non-promoted episodes. Boxes show the interquartile range and median, whiskers show minima and maxima, and diamonds show means. Individual-filter thresholds are 0.90 and the weighted threshold is 0.60.</desc>
  <defs>
    <marker id="arrow" viewBox="0 0 10 10" refX="9" refY="5" markerWidth="7" markerHeight="7" orient="auto-start-reverse">
      <path d="M 0 0 L 10 5 L 0 10 z" fill="#5D6975"/>
    </marker>
    <pattern id="probe-hatch" width="8" height="8" patternUnits="userSpaceOnUse" patternTransform="rotate(45)">
      <line x1="0" y1="0" x2="0" y2="8" stroke="#C85A16" stroke-width="2" opacity="0.25"/>
    </pattern>
  </defs>
  <rect width="1200" height="620" fill="#FFFFFF"/>
  <g font-family="Inter, Segoe UI, Arial, sans-serif" shape-rendering="geometricPrecision">
  <text x="40" y="38" font-size="18" font-weight="500" fill="#17212B" text-anchor="start">Scores across all 90 evaluated episodes</text>
  <text x="1145" y="38" font-size="12" font-weight="400" fill="#5D6975" text-anchor="end">Alternative routes; empty-LTM filter bypass was suspended</text>
  <line x1="105" y1="455.0" x2="1145" y2="455.0" stroke="#D8E0E6" stroke-width="1"/>
  <text x="87" y="460.0" font-size="13" font-weight="400" fill="#5D6975" text-anchor="end">0.0</text>
  <line x1="105" y1="379.0" x2="1145" y2="379.0" stroke="#D8E0E6" stroke-width="1"/>
  <text x="87" y="384.0" font-size="13" font-weight="400" fill="#5D6975" text-anchor="end">0.2</text>
  <line x1="105" y1="303.0" x2="1145" y2="303.0" stroke="#D8E0E6" stroke-width="1"/>
  <text x="87" y="308.0" font-size="13" font-weight="400" fill="#5D6975" text-anchor="end">0.4</text>
  <line x1="105" y1="227.0" x2="1145" y2="227.0" stroke="#D8E0E6" stroke-width="1"/>
  <text x="87" y="232.0" font-size="13" font-weight="400" fill="#5D6975" text-anchor="end">0.6</text>
  <line x1="105" y1="151.0" x2="1145" y2="151.0" stroke="#D8E0E6" stroke-width="1"/>
  <text x="87" y="156.0" font-size="13" font-weight="400" fill="#5D6975" text-anchor="end">0.8</text>
  <line x1="105" y1="75.0" x2="1145" y2="75.0" stroke="#D8E0E6" stroke-width="1"/>
  <text x="87" y="80.0" font-size="13" font-weight="400" fill="#5D6975" text-anchor="end">1.0</text>
  <line x1="137.0" y1="113.0" x2="281.0" y2="113.0" stroke="#C85A16" stroke-width="2" stroke-dasharray="6 4"/>
  <text x="283.0" y="117.0" font-size="11" font-weight="400" fill="#C85A16" text-anchor="start">0.90</text>
  <circle cx="170.0" cy="75.0" r="3.2" fill="#C85A16" opacity="0.46"/>
  <circle cx="207.0" cy="75.0" r="3.2" fill="#C85A16" opacity="0.46"/>
  <circle cx="244.0" cy="75.0" r="3.2" fill="#C85A16" opacity="0.46"/>
  <circle cx="202.0" cy="75.0" r="3.2" fill="#C85A16" opacity="0.46"/>
  <circle cx="239.0" cy="75.0" r="3.2" fill="#C85A16" opacity="0.46"/>
  <circle cx="197.0" cy="75.0" r="3.2" fill="#C85A16" opacity="0.46"/>
  <circle cx="234.0" cy="75.0" r="3.2" fill="#C85A16" opacity="0.46"/>
  <circle cx="192.0" cy="75.0" r="3.2" fill="#C85A16" opacity="0.46"/>
  <circle cx="229.0" cy="75.0" r="3.2" fill="#C85A16" opacity="0.46"/>
  <circle cx="187.0" cy="75.0" r="3.2" fill="#2474A6" opacity="0.18"/>
  <circle cx="224.0" cy="75.0" r="3.2" fill="#2474A6" opacity="0.18"/>
  <circle cx="182.0" cy="75.0" r="3.2" fill="#C85A16" opacity="0.46"/>
  <circle cx="219.0" cy="75.0" r="3.2" fill="#C85A16" opacity="0.46"/>
  <circle cx="177.0" cy="75.0" r="3.2" fill="#C85A16" opacity="0.46"/>
  <circle cx="214.0" cy="75.0" r="3.2" fill="#2474A6" opacity="0.18"/>
  <circle cx="172.0" cy="75.0" r="3.2" fill="#2474A6" opacity="0.18"/>
  <circle cx="209.0" cy="75.0" r="3.2" fill="#2474A6" opacity="0.18"/>
  <circle cx="246.0" cy="75.0" r="3.2" fill="#2474A6" opacity="0.18"/>
  <circle cx="204.0" cy="75.0" r="3.2" fill="#2474A6" opacity="0.18"/>
  <circle cx="241.0" cy="75.0" r="3.2" fill="#2474A6" opacity="0.18"/>
  <circle cx="199.0" cy="75.0" r="3.2" fill="#2474A6" opacity="0.18"/>
  <circle cx="236.0" cy="75.0" r="3.2" fill="#2474A6" opacity="0.18"/>
  <circle cx="194.0" cy="75.0" r="3.2" fill="#2474A6" opacity="0.18"/>
  <circle cx="231.0" cy="75.0" r="3.2" fill="#2474A6" opacity="0.18"/>
  <circle cx="189.0" cy="75.0" r="3.2" fill="#2474A6" opacity="0.18"/>
  <circle cx="226.0" cy="75.0" r="3.2" fill="#2474A6" opacity="0.18"/>
  <circle cx="184.0" cy="75.0" r="3.2" fill="#2474A6" opacity="0.18"/>
  <circle cx="221.0" cy="75.0" r="3.2" fill="#2474A6" opacity="0.18"/>
  <circle cx="179.0" cy="75.0" r="3.2" fill="#2474A6" opacity="0.18"/>
  <circle cx="216.0" cy="75.0" r="3.2" fill="#2474A6" opacity="0.18"/>
  <circle cx="174.0" cy="126.14" r="3.2" fill="#2474A6" opacity="0.18"/>
  <circle cx="211.0" cy="142.52" r="3.2" fill="#2474A6" opacity="0.18"/>
  <circle cx="248.0" cy="103.89" r="3.2" fill="#C85A16" opacity="0.46"/>
  <circle cx="206.0" cy="75.0" r="3.2" fill="#C85A16" opacity="0.46"/>
  <circle cx="243.0" cy="111.42" r="3.2" fill="#C85A16" opacity="0.46"/>
  <circle cx="201.0" cy="131.56" r="3.2" fill="#2474A6" opacity="0.18"/>
  <circle cx="238.0" cy="164.85" r="3.2" fill="#2474A6" opacity="0.18"/>
  <circle cx="196.0" cy="147.71" r="3.2" fill="#2474A6" opacity="0.18"/>
  <circle cx="233.0" cy="149.63" r="3.2" fill="#2474A6" opacity="0.18"/>
  <circle cx="191.0" cy="105.82" r="3.2" fill="#C85A16" opacity="0.46"/>
  <circle cx="228.0" cy="146.03" r="3.2" fill="#2474A6" opacity="0.18"/>
  <circle cx="186.0" cy="116.41" r="3.2" fill="#2474A6" opacity="0.18"/>
  <circle cx="223.0" cy="140.2" r="3.2" fill="#2474A6" opacity="0.18"/>
  <circle cx="181.0" cy="141.89" r="3.2" fill="#2474A6" opacity="0.18"/>
  <circle cx="218.0" cy="142.86" r="3.2" fill="#2474A6" opacity="0.18"/>
  <circle cx="176.0" cy="142.87" r="3.2" fill="#2474A6" opacity="0.18"/>
  <circle cx="213.0" cy="184.72" r="3.2" fill="#2474A6" opacity="0.18"/>
  <circle cx="171.0" cy="98.18" r="3.2" fill="#C85A16" opacity="0.46"/>
  <circle cx="208.0" cy="156.7" r="3.2" fill="#2474A6" opacity="0.18"/>
  <circle cx="245.0" cy="124.31" r="3.2" fill="#2474A6" opacity="0.18"/>
  <circle cx="203.0" cy="127.83" r="3.2" fill="#2474A6" opacity="0.18"/>
  <circle cx="240.0" cy="153.35" r="3.2" fill="#2474A6" opacity="0.18"/>
  <circle cx="198.0" cy="160.34" r="3.2" fill="#2474A6" opacity="0.18"/>
  <circle cx="235.0" cy="144.92" r="3.2" fill="#2474A6" opacity="0.18"/>
  <circle cx="193.0" cy="136.74" r="3.2" fill="#C85A16" opacity="0.46"/>
  <circle cx="230.0" cy="150.12" r="3.2" fill="#2474A6" opacity="0.18"/>
  <circle cx="188.0" cy="97.74" r="3.2" fill="#C85A16" opacity="0.46"/>
  <circle cx="225.0" cy="133.16" r="3.2" fill="#2474A6" opacity="0.18"/>
  <circle cx="183.0" cy="140.59" r="3.2" fill="#2474A6" opacity="0.18"/>
  <circle cx="220.0" cy="149.17" r="3.2" fill="#2474A6" opacity="0.18"/>
  <circle cx="178.0" cy="193.76" r="3.2" fill="#2474A6" opacity="0.18"/>
  <circle cx="215.0" cy="195.63" r="3.2" fill="#2474A6" opacity="0.18"/>
  <circle cx="173.0" cy="167.11" r="3.2" fill="#2474A6" opacity="0.18"/>
  <circle cx="210.0" cy="137.17" r="3.2" fill="#2474A6" opacity="0.18"/>
  <circle cx="247.0" cy="175.08" r="3.2" fill="#2474A6" opacity="0.18"/>
  <circle cx="205.0" cy="138.02" r="3.2" fill="#2474A6" opacity="0.18"/>
  <circle cx="242.0" cy="135.95" r="3.2" fill="#2474A6" opacity="0.18"/>
  <circle cx="200.0" cy="206.45" r="3.2" fill="#2474A6" opacity="0.18"/>
  <circle cx="237.0" cy="165.83" r="3.2" fill="#2474A6" opacity="0.18"/>
  <circle cx="195.0" cy="175.39" r="3.2" fill="#C85A16" opacity="0.46"/>
  <circle cx="232.0" cy="152.76" r="3.2" fill="#2474A6" opacity="0.18"/>
  <circle cx="190.0" cy="146.77" r="3.2" fill="#2474A6" opacity="0.18"/>
  <circle cx="227.0" cy="155.49" r="3.2" fill="#2474A6" opacity="0.18"/>
  <circle cx="185.0" cy="162.68" r="3.2" fill="#2474A6" opacity="0.18"/>
  <circle cx="222.0" cy="169.19" r="3.2" fill="#2474A6" opacity="0.18"/>
  <circle cx="180.0" cy="185.34" r="3.2" fill="#2474A6" opacity="0.18"/>
  <circle cx="217.0" cy="134.57" r="3.2" fill="#2474A6" opacity="0.18"/>
  <circle cx="175.0" cy="134.6" r="3.2" fill="#2474A6" opacity="0.18"/>
  <circle cx="212.0" cy="151.06" r="3.2" fill="#2474A6" opacity="0.18"/>
  <circle cx="170.0" cy="183.82" r="3.2" fill="#2474A6" opacity="0.18"/>
  <circle cx="207.0" cy="187.79" r="3.2" fill="#2474A6" opacity="0.18"/>
  <circle cx="244.0" cy="173.91" r="3.2" fill="#2474A6" opacity="0.18"/>
  <circle cx="202.0" cy="172.17" r="3.2" fill="#2474A6" opacity="0.18"/>
  <circle cx="239.0" cy="155.62" r="3.2" fill="#2474A6" opacity="0.18"/>
  <circle cx="197.0" cy="172.79" r="3.2" fill="#2474A6" opacity="0.18"/>
  <circle cx="234.0" cy="103.94" r="3.2" fill="#C85A16" opacity="0.46"/>
  <circle cx="192.0" cy="156.25" r="3.2" fill="#2474A6" opacity="0.18"/>
  <circle cx="229.0" cy="163.5" r="3.2" fill="#2474A6" opacity="0.18"/>
  <circle cx="187.0" cy="171.82" r="3.2" fill="#2474A6" opacity="0.18"/>
  <circle cx="224.0" cy="150.68" r="3.2" fill="#2474A6" opacity="0.18"/>
  <line x1="209.0" y1="206.45" x2="209.0" y2="75.0" stroke="#17212B" stroke-width="1.5"/>
  <line x1="191.0" y1="206.45" x2="227.0" y2="206.45" stroke="#17212B" stroke-width="1.5"/>
  <line x1="191.0" y1="75.0" x2="227.0" y2="75.0" stroke="#17212B" stroke-width="1.5"/>
  <rect x="179.0" y="75.0" width="60" height="80.59" fill="#FFFFFF" stroke="#17212B" stroke-width="2"/>
  <line x1="179.0" y1="135.28" x2="239.0" y2="135.28" stroke="#17212B" stroke-width="3"/>
  <polygon points="209.0,117.13 216.0,124.13 209.0,131.13 202.0,124.13" fill="#18835D" stroke="#FFFFFF" stroke-width="1"/>
  <text x="209.0" y="488" font-size="14" font-weight="500" fill="#17212B" text-anchor="middle">Novelty</text>
  <text x="209.0" y="510" font-size="12" font-weight="400" fill="#5D6975" text-anchor="middle">individual triggers n=7</text>
  <text x="209.0" y="535" font-size="11" font-weight="400" fill="#5D6975" text-anchor="middle">median 0.841 · mean 0.871</text>
  <line x1="345.0" y1="113.0" x2="489.0" y2="113.0" stroke="#C85A16" stroke-width="2" stroke-dasharray="6 4"/>
  <text x="491.0" y="117.0" font-size="11" font-weight="400" fill="#C85A16" text-anchor="start">0.90</text>
  <circle cx="389.0" cy="75.0" r="3.2" fill="#C85A16" opacity="0.46"/>
  <circle cx="426.0" cy="75.0" r="3.2" fill="#C85A16" opacity="0.46"/>
  <circle cx="384.0" cy="75.0" r="3.2" fill="#C85A16" opacity="0.46"/>
  <circle cx="421.0" cy="75.0" r="3.2" fill="#C85A16" opacity="0.46"/>
  <circle cx="379.0" cy="75.0" r="3.2" fill="#C85A16" opacity="0.46"/>
  <circle cx="416.0" cy="75.0" r="3.2" fill="#C85A16" opacity="0.46"/>
  <circle cx="453.0" cy="75.0" r="3.2" fill="#C85A16" opacity="0.46"/>
  <circle cx="411.0" cy="75.0" r="3.2" fill="#C85A16" opacity="0.46"/>
  <circle cx="448.0" cy="75.0" r="3.2" fill="#C85A16" opacity="0.46"/>
  <circle cx="406.0" cy="379.0" r="3.2" fill="#2474A6" opacity="0.18"/>
  <circle cx="443.0" cy="379.0" r="3.2" fill="#2474A6" opacity="0.18"/>
  <circle cx="401.0" cy="75.0" r="3.2" fill="#C85A16" opacity="0.46"/>
  <circle cx="438.0" cy="75.0" r="3.2" fill="#C85A16" opacity="0.46"/>
  <circle cx="396.0" cy="75.0" r="3.2" fill="#C85A16" opacity="0.46"/>
  <circle cx="433.0" cy="379.0" r="3.2" fill="#2474A6" opacity="0.18"/>
  <circle cx="391.0" cy="379.0" r="3.2" fill="#2474A6" opacity="0.18"/>
  <circle cx="428.0" cy="379.0" r="3.2" fill="#2474A6" opacity="0.18"/>
  <circle cx="386.0" cy="379.0" r="3.2" fill="#2474A6" opacity="0.18"/>
  <circle cx="423.0" cy="379.0" r="3.2" fill="#2474A6" opacity="0.18"/>
  <circle cx="381.0" cy="379.0" r="3.2" fill="#2474A6" opacity="0.18"/>
  <circle cx="418.0" cy="379.0" r="3.2" fill="#2474A6" opacity="0.18"/>
  <circle cx="455.0" cy="379.0" r="3.2" fill="#2474A6" opacity="0.18"/>
  <circle cx="413.0" cy="379.0" r="3.2" fill="#2474A6" opacity="0.18"/>
  <circle cx="450.0" cy="379.0" r="3.2" fill="#2474A6" opacity="0.18"/>
  <circle cx="408.0" cy="379.0" r="3.2" fill="#2474A6" opacity="0.18"/>
  <circle cx="445.0" cy="227.0" r="3.2" fill="#2474A6" opacity="0.18"/>
  <circle cx="403.0" cy="379.0" r="3.2" fill="#2474A6" opacity="0.18"/>
  <circle cx="440.0" cy="379.0" r="3.2" fill="#2474A6" opacity="0.18"/>
  <circle cx="398.0" cy="379.0" r="3.2" fill="#2474A6" opacity="0.18"/>
  <circle cx="435.0" cy="379.0" r="3.2" fill="#2474A6" opacity="0.18"/>
  <circle cx="393.0" cy="379.0" r="3.2" fill="#2474A6" opacity="0.18"/>
  <circle cx="430.0" cy="379.0" r="3.2" fill="#2474A6" opacity="0.18"/>
  <circle cx="388.0" cy="151.0" r="3.2" fill="#C85A16" opacity="0.46"/>
  <circle cx="425.0" cy="379.0" r="3.2" fill="#C85A16" opacity="0.46"/>
  <circle cx="383.0" cy="379.0" r="3.2" fill="#C85A16" opacity="0.46"/>
  <circle cx="420.0" cy="227.0" r="3.2" fill="#2474A6" opacity="0.18"/>
  <circle cx="378.0" cy="379.0" r="3.2" fill="#2474A6" opacity="0.18"/>
  <circle cx="415.0" cy="379.0" r="3.2" fill="#2474A6" opacity="0.18"/>
  <circle cx="452.0" cy="379.0" r="3.2" fill="#2474A6" opacity="0.18"/>
  <circle cx="410.0" cy="379.0" r="3.2" fill="#C85A16" opacity="0.46"/>
  <circle cx="447.0" cy="379.0" r="3.2" fill="#2474A6" opacity="0.18"/>
  <circle cx="405.0" cy="379.0" r="3.2" fill="#2474A6" opacity="0.18"/>
  <circle cx="442.0" cy="379.0" r="3.2" fill="#2474A6" opacity="0.18"/>
  <circle cx="400.0" cy="379.0" r="3.2" fill="#2474A6" opacity="0.18"/>
  <circle cx="437.0" cy="379.0" r="3.2" fill="#2474A6" opacity="0.18"/>
  <circle cx="395.0" cy="379.0" r="3.2" fill="#2474A6" opacity="0.18"/>
  <circle cx="432.0" cy="379.0" r="3.2" fill="#2474A6" opacity="0.18"/>
  <circle cx="390.0" cy="379.0" r="3.2" fill="#C85A16" opacity="0.46"/>
  <circle cx="427.0" cy="379.0" r="3.2" fill="#2474A6" opacity="0.18"/>
  <circle cx="385.0" cy="379.0" r="3.2" fill="#2474A6" opacity="0.18"/>
  <circle cx="422.0" cy="379.0" r="3.2" fill="#2474A6" opacity="0.18"/>
  <circle cx="380.0" cy="379.0" r="3.2" fill="#2474A6" opacity="0.18"/>
  <circle cx="417.0" cy="379.0" r="3.2" fill="#2474A6" opacity="0.18"/>
  <circle cx="454.0" cy="379.0" r="3.2" fill="#2474A6" opacity="0.18"/>
  <circle cx="412.0" cy="75.0" r="3.2" fill="#C85A16" opacity="0.46"/>
  <circle cx="449.0" cy="303.0" r="3.2" fill="#2474A6" opacity="0.18"/>
  <circle cx="407.0" cy="379.0" r="3.2" fill="#C85A16" opacity="0.46"/>
  <circle cx="444.0" cy="379.0" r="3.2" fill="#2474A6" opacity="0.18"/>
  <circle cx="402.0" cy="379.0" r="3.2" fill="#2474A6" opacity="0.18"/>
  <circle cx="439.0" cy="379.0" r="3.2" fill="#2474A6" opacity="0.18"/>
  <circle cx="397.0" cy="227.0" r="3.2" fill="#2474A6" opacity="0.18"/>
  <circle cx="434.0" cy="379.0" r="3.2" fill="#2474A6" opacity="0.18"/>
  <circle cx="392.0" cy="379.0" r="3.2" fill="#2474A6" opacity="0.18"/>
  <circle cx="429.0" cy="379.0" r="3.2" fill="#2474A6" opacity="0.18"/>
  <circle cx="387.0" cy="379.0" r="3.2" fill="#2474A6" opacity="0.18"/>
  <circle cx="424.0" cy="379.0" r="3.2" fill="#2474A6" opacity="0.18"/>
  <circle cx="382.0" cy="379.0" r="3.2" fill="#2474A6" opacity="0.18"/>
  <circle cx="419.0" cy="379.0" r="3.2" fill="#2474A6" opacity="0.18"/>
  <circle cx="456.0" cy="151.0" r="3.2" fill="#2474A6" opacity="0.18"/>
  <circle cx="414.0" cy="75.0" r="3.2" fill="#C85A16" opacity="0.46"/>
  <circle cx="451.0" cy="379.0" r="3.2" fill="#2474A6" opacity="0.18"/>
  <circle cx="409.0" cy="379.0" r="3.2" fill="#2474A6" opacity="0.18"/>
  <circle cx="446.0" cy="379.0" r="3.2" fill="#2474A6" opacity="0.18"/>
  <circle cx="404.0" cy="303.0" r="3.2" fill="#2474A6" opacity="0.18"/>
  <circle cx="441.0" cy="379.0" r="3.2" fill="#2474A6" opacity="0.18"/>
  <circle cx="399.0" cy="303.0" r="3.2" fill="#2474A6" opacity="0.18"/>
  <circle cx="436.0" cy="379.0" r="3.2" fill="#2474A6" opacity="0.18"/>
  <circle cx="394.0" cy="379.0" r="3.2" fill="#2474A6" opacity="0.18"/>
  <circle cx="431.0" cy="379.0" r="3.2" fill="#2474A6" opacity="0.18"/>
  <circle cx="389.0" cy="379.0" r="3.2" fill="#2474A6" opacity="0.18"/>
  <circle cx="426.0" cy="379.0" r="3.2" fill="#2474A6" opacity="0.18"/>
  <circle cx="384.0" cy="379.0" r="3.2" fill="#2474A6" opacity="0.18"/>
  <circle cx="421.0" cy="379.0" r="3.2" fill="#2474A6" opacity="0.18"/>
  <circle cx="379.0" cy="379.0" r="3.2" fill="#2474A6" opacity="0.18"/>
  <circle cx="416.0" cy="379.0" r="3.2" fill="#2474A6" opacity="0.18"/>
  <circle cx="453.0" cy="379.0" r="3.2" fill="#C85A16" opacity="0.46"/>
  <circle cx="411.0" cy="379.0" r="3.2" fill="#2474A6" opacity="0.18"/>
  <circle cx="448.0" cy="379.0" r="3.2" fill="#2474A6" opacity="0.18"/>
  <circle cx="406.0" cy="379.0" r="3.2" fill="#2474A6" opacity="0.18"/>
  <circle cx="443.0" cy="379.0" r="3.2" fill="#2474A6" opacity="0.18"/>
  <line x1="417.0" y1="379.0" x2="417.0" y2="75.0" stroke="#17212B" stroke-width="1.5"/>
  <line x1="399.0" y1="379.0" x2="435.0" y2="379.0" stroke="#17212B" stroke-width="1.5"/>
  <line x1="399.0" y1="75.0" x2="435.0" y2="75.0" stroke="#17212B" stroke-width="1.5"/>
  <rect x="387.0" y="379.0" width="60" height="0.0" fill="#FFFFFF" stroke="#17212B" stroke-width="2"/>
  <line x1="387.0" y1="379.0" x2="447.0" y2="379.0" stroke="#17212B" stroke-width="3"/>
  <polygon points="417.0,312.04 424.0,319.04 417.0,326.04 410.0,319.04" fill="#18835D" stroke="#FFFFFF" stroke-width="1"/>
  <text x="417.0" y="488" font-size="14" font-weight="500" fill="#17212B" text-anchor="middle">Repetition</text>
  <text x="417.0" y="510" font-size="12" font-weight="400" fill="#5D6975" text-anchor="middle">individual triggers n=2</text>
  <text x="417.0" y="535" font-size="11" font-weight="400" fill="#5D6975" text-anchor="middle">median 0.200 · mean 0.358</text>
  <line x1="553.0" y1="113.0" x2="697.0" y2="113.0" stroke="#C85A16" stroke-width="2" stroke-dasharray="6 4"/>
  <text x="699.0" y="117.0" font-size="11" font-weight="400" fill="#C85A16" text-anchor="start">0.90</text>
  <circle cx="608.0" cy="455.0" r="3.2" fill="#C85A16" opacity="0.46"/>
  <circle cx="645.0" cy="455.0" r="3.2" fill="#C85A16" opacity="0.46"/>
  <circle cx="603.0" cy="455.0" r="3.2" fill="#C85A16" opacity="0.46"/>
  <circle cx="640.0" cy="455.0" r="3.2" fill="#C85A16" opacity="0.46"/>
  <circle cx="598.0" cy="455.0" r="3.2" fill="#C85A16" opacity="0.46"/>
  <circle cx="635.0" cy="455.0" r="3.2" fill="#C85A16" opacity="0.46"/>
  <circle cx="593.0" cy="455.0" r="3.2" fill="#C85A16" opacity="0.46"/>
  <circle cx="630.0" cy="455.0" r="3.2" fill="#C85A16" opacity="0.46"/>
  <circle cx="588.0" cy="455.0" r="3.2" fill="#C85A16" opacity="0.46"/>
  <circle cx="625.0" cy="455.0" r="3.2" fill="#2474A6" opacity="0.18"/>
  <circle cx="662.0" cy="455.0" r="3.2" fill="#2474A6" opacity="0.18"/>
  <circle cx="620.0" cy="455.0" r="3.2" fill="#C85A16" opacity="0.46"/>
  <circle cx="657.0" cy="455.0" r="3.2" fill="#C85A16" opacity="0.46"/>
  <circle cx="615.0" cy="455.0" r="3.2" fill="#C85A16" opacity="0.46"/>
  <circle cx="652.0" cy="455.0" r="3.2" fill="#2474A6" opacity="0.18"/>
  <circle cx="610.0" cy="455.0" r="3.2" fill="#2474A6" opacity="0.18"/>
  <circle cx="647.0" cy="455.0" r="3.2" fill="#2474A6" opacity="0.18"/>
  <circle cx="605.0" cy="455.0" r="3.2" fill="#2474A6" opacity="0.18"/>
  <circle cx="642.0" cy="455.0" r="3.2" fill="#2474A6" opacity="0.18"/>
  <circle cx="600.0" cy="455.0" r="3.2" fill="#2474A6" opacity="0.18"/>
  <circle cx="637.0" cy="455.0" r="3.2" fill="#2474A6" opacity="0.18"/>
  <circle cx="595.0" cy="455.0" r="3.2" fill="#2474A6" opacity="0.18"/>
  <circle cx="632.0" cy="455.0" r="3.2" fill="#2474A6" opacity="0.18"/>
  <circle cx="590.0" cy="455.0" r="3.2" fill="#2474A6" opacity="0.18"/>
  <circle cx="627.0" cy="455.0" r="3.2" fill="#2474A6" opacity="0.18"/>
  <circle cx="664.0" cy="455.0" r="3.2" fill="#2474A6" opacity="0.18"/>
  <circle cx="622.0" cy="455.0" r="3.2" fill="#2474A6" opacity="0.18"/>
  <circle cx="659.0" cy="455.0" r="3.2" fill="#2474A6" opacity="0.18"/>
  <circle cx="617.0" cy="455.0" r="3.2" fill="#2474A6" opacity="0.18"/>
  <circle cx="654.0" cy="455.0" r="3.2" fill="#2474A6" opacity="0.18"/>
  <circle cx="612.0" cy="403.86" r="3.2" fill="#2474A6" opacity="0.18"/>
  <circle cx="649.0" cy="387.48" r="3.2" fill="#2474A6" opacity="0.18"/>
  <circle cx="607.0" cy="426.11" r="3.2" fill="#C85A16" opacity="0.46"/>
  <circle cx="644.0" cy="455.0" r="3.2" fill="#C85A16" opacity="0.46"/>
  <circle cx="602.0" cy="418.58" r="3.2" fill="#C85A16" opacity="0.46"/>
  <circle cx="639.0" cy="398.44" r="3.2" fill="#2474A6" opacity="0.18"/>
  <circle cx="597.0" cy="365.15" r="3.2" fill="#2474A6" opacity="0.18"/>
  <circle cx="634.0" cy="382.29" r="3.2" fill="#2474A6" opacity="0.18"/>
  <circle cx="592.0" cy="380.37" r="3.2" fill="#2474A6" opacity="0.18"/>
  <circle cx="629.0" cy="424.18" r="3.2" fill="#C85A16" opacity="0.46"/>
  <circle cx="587.0" cy="383.97" r="3.2" fill="#2474A6" opacity="0.18"/>
  <circle cx="624.0" cy="413.59" r="3.2" fill="#2474A6" opacity="0.18"/>
  <circle cx="661.0" cy="389.8" r="3.2" fill="#2474A6" opacity="0.18"/>
  <circle cx="619.0" cy="388.11" r="3.2" fill="#2474A6" opacity="0.18"/>
  <circle cx="656.0" cy="387.14" r="3.2" fill="#2474A6" opacity="0.18"/>
  <circle cx="614.0" cy="387.13" r="3.2" fill="#2474A6" opacity="0.18"/>
  <circle cx="651.0" cy="345.28" r="3.2" fill="#2474A6" opacity="0.18"/>
  <circle cx="609.0" cy="431.82" r="3.2" fill="#C85A16" opacity="0.46"/>
  <circle cx="646.0" cy="373.3" r="3.2" fill="#2474A6" opacity="0.18"/>
  <circle cx="604.0" cy="405.69" r="3.2" fill="#2474A6" opacity="0.18"/>
  <circle cx="641.0" cy="402.17" r="3.2" fill="#2474A6" opacity="0.18"/>
  <circle cx="599.0" cy="376.65" r="3.2" fill="#2474A6" opacity="0.18"/>
  <circle cx="636.0" cy="369.66" r="3.2" fill="#2474A6" opacity="0.18"/>
  <circle cx="594.0" cy="385.08" r="3.2" fill="#2474A6" opacity="0.18"/>
  <circle cx="631.0" cy="393.26" r="3.2" fill="#C85A16" opacity="0.46"/>
  <circle cx="589.0" cy="379.88" r="3.2" fill="#2474A6" opacity="0.18"/>
  <circle cx="626.0" cy="432.26" r="3.2" fill="#C85A16" opacity="0.46"/>
  <circle cx="663.0" cy="396.84" r="3.2" fill="#2474A6" opacity="0.18"/>
  <circle cx="621.0" cy="389.41" r="3.2" fill="#2474A6" opacity="0.18"/>
  <circle cx="658.0" cy="380.83" r="3.2" fill="#2474A6" opacity="0.18"/>
  <circle cx="616.0" cy="336.24" r="3.2" fill="#2474A6" opacity="0.18"/>
  <circle cx="653.0" cy="334.37" r="3.2" fill="#2474A6" opacity="0.18"/>
  <circle cx="611.0" cy="362.89" r="3.2" fill="#2474A6" opacity="0.18"/>
  <circle cx="648.0" cy="392.83" r="3.2" fill="#2474A6" opacity="0.18"/>
  <circle cx="606.0" cy="354.92" r="3.2" fill="#2474A6" opacity="0.18"/>
  <circle cx="643.0" cy="391.98" r="3.2" fill="#2474A6" opacity="0.18"/>
  <circle cx="601.0" cy="394.05" r="3.2" fill="#2474A6" opacity="0.18"/>
  <circle cx="638.0" cy="323.55" r="3.2" fill="#2474A6" opacity="0.18"/>
  <circle cx="596.0" cy="364.17" r="3.2" fill="#2474A6" opacity="0.18"/>
  <circle cx="633.0" cy="354.61" r="3.2" fill="#C85A16" opacity="0.46"/>
  <circle cx="591.0" cy="377.24" r="3.2" fill="#2474A6" opacity="0.18"/>
  <circle cx="628.0" cy="383.23" r="3.2" fill="#2474A6" opacity="0.18"/>
  <circle cx="586.0" cy="374.51" r="3.2" fill="#2474A6" opacity="0.18"/>
  <circle cx="623.0" cy="367.32" r="3.2" fill="#2474A6" opacity="0.18"/>
  <circle cx="660.0" cy="360.81" r="3.2" fill="#2474A6" opacity="0.18"/>
  <circle cx="618.0" cy="344.66" r="3.2" fill="#2474A6" opacity="0.18"/>
  <circle cx="655.0" cy="395.43" r="3.2" fill="#2474A6" opacity="0.18"/>
  <circle cx="613.0" cy="395.4" r="3.2" fill="#2474A6" opacity="0.18"/>
  <circle cx="650.0" cy="378.94" r="3.2" fill="#2474A6" opacity="0.18"/>
  <circle cx="608.0" cy="346.18" r="3.2" fill="#2474A6" opacity="0.18"/>
  <circle cx="645.0" cy="342.21" r="3.2" fill="#2474A6" opacity="0.18"/>
  <circle cx="603.0" cy="356.09" r="3.2" fill="#2474A6" opacity="0.18"/>
  <circle cx="640.0" cy="357.83" r="3.2" fill="#2474A6" opacity="0.18"/>
  <circle cx="598.0" cy="374.38" r="3.2" fill="#2474A6" opacity="0.18"/>
  <circle cx="635.0" cy="357.21" r="3.2" fill="#2474A6" opacity="0.18"/>
  <circle cx="593.0" cy="426.06" r="3.2" fill="#C85A16" opacity="0.46"/>
  <circle cx="630.0" cy="373.75" r="3.2" fill="#2474A6" opacity="0.18"/>
  <circle cx="588.0" cy="366.5" r="3.2" fill="#2474A6" opacity="0.18"/>
  <circle cx="625.0" cy="358.18" r="3.2" fill="#2474A6" opacity="0.18"/>
  <circle cx="662.0" cy="379.32" r="3.2" fill="#2474A6" opacity="0.18"/>
  <line x1="625.0" y1="455.0" x2="625.0" y2="323.55" stroke="#17212B" stroke-width="1.5"/>
  <line x1="607.0" y1="455.0" x2="643.0" y2="455.0" stroke="#17212B" stroke-width="1.5"/>
  <line x1="607.0" y1="323.55" x2="643.0" y2="323.55" stroke="#17212B" stroke-width="1.5"/>
  <rect x="595.0" y="374.41" width="60" height="80.59" fill="#FFFFFF" stroke="#17212B" stroke-width="2"/>
  <line x1="595.0" y1="394.72" x2="655.0" y2="394.72" stroke="#17212B" stroke-width="3"/>
  <polygon points="625.0,398.87 632.0,405.87 625.0,412.87 618.0,405.87" fill="#18835D" stroke="#FFFFFF" stroke-width="1"/>
  <text x="625.0" y="488" font-size="14" font-weight="500" fill="#17212B" text-anchor="middle">Association</text>
  <text x="625.0" y="510" font-size="12" font-weight="400" fill="#5D6975" text-anchor="middle">individual triggers n=0</text>
  <text x="625.0" y="535" font-size="11" font-weight="400" fill="#5D6975" text-anchor="middle">median 0.159 · mean 0.129</text>
  <line x1="761.0" y1="113.0" x2="905.0" y2="113.0" stroke="#C85A16" stroke-width="2" stroke-dasharray="6 4"/>
  <text x="907.0" y="117.0" font-size="11" font-weight="400" fill="#C85A16" text-anchor="start">0.90</text>
  <circle cx="827.0" cy="455.0" r="3.2" fill="#C85A16" opacity="0.46"/>
  <circle cx="864.0" cy="417.0" r="3.2" fill="#C85A16" opacity="0.46"/>
  <circle cx="822.0" cy="417.0" r="3.2" fill="#C85A16" opacity="0.46"/>
  <circle cx="859.0" cy="455.0" r="3.2" fill="#C85A16" opacity="0.46"/>
  <circle cx="817.0" cy="417.0" r="3.2" fill="#C85A16" opacity="0.46"/>
  <circle cx="854.0" cy="455.0" r="3.2" fill="#C85A16" opacity="0.46"/>
  <circle cx="812.0" cy="455.0" r="3.2" fill="#C85A16" opacity="0.46"/>
  <circle cx="849.0" cy="455.0" r="3.2" fill="#C85A16" opacity="0.46"/>
  <circle cx="807.0" cy="417.0" r="3.2" fill="#C85A16" opacity="0.46"/>
  <circle cx="844.0" cy="455.0" r="3.2" fill="#2474A6" opacity="0.18"/>
  <circle cx="802.0" cy="455.0" r="3.2" fill="#2474A6" opacity="0.18"/>
  <circle cx="839.0" cy="417.0" r="3.2" fill="#C85A16" opacity="0.46"/>
  <circle cx="797.0" cy="455.0" r="3.2" fill="#C85A16" opacity="0.46"/>
  <circle cx="834.0" cy="417.0" r="3.2" fill="#C85A16" opacity="0.46"/>
  <circle cx="871.0" cy="417.0" r="3.2" fill="#2474A6" opacity="0.18"/>
  <circle cx="829.0" cy="417.0" r="3.2" fill="#2474A6" opacity="0.18"/>
  <circle cx="866.0" cy="455.0" r="3.2" fill="#2474A6" opacity="0.18"/>
  <circle cx="824.0" cy="417.0" r="3.2" fill="#2474A6" opacity="0.18"/>
  <circle cx="861.0" cy="455.0" r="3.2" fill="#2474A6" opacity="0.18"/>
  <circle cx="819.0" cy="417.0" r="3.2" fill="#2474A6" opacity="0.18"/>
  <circle cx="856.0" cy="436.0" r="3.2" fill="#2474A6" opacity="0.18"/>
  <circle cx="814.0" cy="417.0" r="3.2" fill="#2474A6" opacity="0.18"/>
  <circle cx="851.0" cy="417.0" r="3.2" fill="#2474A6" opacity="0.18"/>
  <circle cx="809.0" cy="417.0" r="3.2" fill="#2474A6" opacity="0.18"/>
  <circle cx="846.0" cy="417.0" r="3.2" fill="#2474A6" opacity="0.18"/>
  <circle cx="804.0" cy="417.0" r="3.2" fill="#2474A6" opacity="0.18"/>
  <circle cx="841.0" cy="417.0" r="3.2" fill="#2474A6" opacity="0.18"/>
  <circle cx="799.0" cy="417.0" r="3.2" fill="#2474A6" opacity="0.18"/>
  <circle cx="836.0" cy="417.0" r="3.2" fill="#2474A6" opacity="0.18"/>
  <circle cx="794.0" cy="455.0" r="3.2" fill="#2474A6" opacity="0.18"/>
  <circle cx="831.0" cy="417.0" r="3.2" fill="#2474A6" opacity="0.18"/>
  <circle cx="868.0" cy="417.0" r="3.2" fill="#2474A6" opacity="0.18"/>
  <circle cx="826.0" cy="417.0" r="3.2" fill="#C85A16" opacity="0.46"/>
  <circle cx="863.0" cy="417.0" r="3.2" fill="#C85A16" opacity="0.46"/>
  <circle cx="821.0" cy="417.0" r="3.2" fill="#C85A16" opacity="0.46"/>
  <circle cx="858.0" cy="417.0" r="3.2" fill="#2474A6" opacity="0.18"/>
  <circle cx="816.0" cy="417.0" r="3.2" fill="#2474A6" opacity="0.18"/>
  <circle cx="853.0" cy="417.0" r="3.2" fill="#2474A6" opacity="0.18"/>
  <circle cx="811.0" cy="455.0" r="3.2" fill="#2474A6" opacity="0.18"/>
  <circle cx="848.0" cy="417.0" r="3.2" fill="#C85A16" opacity="0.46"/>
  <circle cx="806.0" cy="417.0" r="3.2" fill="#2474A6" opacity="0.18"/>
  <circle cx="843.0" cy="455.0" r="3.2" fill="#2474A6" opacity="0.18"/>
  <circle cx="801.0" cy="417.0" r="3.2" fill="#2474A6" opacity="0.18"/>
  <circle cx="838.0" cy="417.0" r="3.2" fill="#2474A6" opacity="0.18"/>
  <circle cx="796.0" cy="417.0" r="3.2" fill="#2474A6" opacity="0.18"/>
  <circle cx="833.0" cy="455.0" r="3.2" fill="#2474A6" opacity="0.18"/>
  <circle cx="870.0" cy="417.0" r="3.2" fill="#2474A6" opacity="0.18"/>
  <circle cx="828.0" cy="417.0" r="3.2" fill="#C85A16" opacity="0.46"/>
  <circle cx="865.0" cy="455.0" r="3.2" fill="#2474A6" opacity="0.18"/>
  <circle cx="823.0" cy="417.0" r="3.2" fill="#2474A6" opacity="0.18"/>
  <circle cx="860.0" cy="436.0" r="3.2" fill="#2474A6" opacity="0.18"/>
  <circle cx="818.0" cy="455.0" r="3.2" fill="#2474A6" opacity="0.18"/>
  <circle cx="855.0" cy="455.0" r="3.2" fill="#2474A6" opacity="0.18"/>
  <circle cx="813.0" cy="379.0" r="3.2" fill="#2474A6" opacity="0.18"/>
  <circle cx="850.0" cy="417.0" r="3.2" fill="#C85A16" opacity="0.46"/>
  <circle cx="808.0" cy="455.0" r="3.2" fill="#2474A6" opacity="0.18"/>
  <circle cx="845.0" cy="417.0" r="3.2" fill="#C85A16" opacity="0.46"/>
  <circle cx="803.0" cy="417.0" r="3.2" fill="#2474A6" opacity="0.18"/>
  <circle cx="840.0" cy="417.0" r="3.2" fill="#2474A6" opacity="0.18"/>
  <circle cx="798.0" cy="379.0" r="3.2" fill="#2474A6" opacity="0.18"/>
  <circle cx="835.0" cy="417.0" r="3.2" fill="#2474A6" opacity="0.18"/>
  <circle cx="872.0" cy="417.0" r="3.2" fill="#2474A6" opacity="0.18"/>
  <circle cx="830.0" cy="417.0" r="3.2" fill="#2474A6" opacity="0.18"/>
  <circle cx="867.0" cy="417.0" r="3.2" fill="#2474A6" opacity="0.18"/>
  <circle cx="825.0" cy="436.0" r="3.2" fill="#2474A6" opacity="0.18"/>
  <circle cx="862.0" cy="417.0" r="3.2" fill="#2474A6" opacity="0.18"/>
  <circle cx="820.0" cy="417.0" r="3.2" fill="#2474A6" opacity="0.18"/>
  <circle cx="857.0" cy="417.0" r="3.2" fill="#2474A6" opacity="0.18"/>
  <circle cx="815.0" cy="455.0" r="3.2" fill="#2474A6" opacity="0.18"/>
  <circle cx="852.0" cy="417.0" r="3.2" fill="#C85A16" opacity="0.46"/>
  <circle cx="810.0" cy="417.0" r="3.2" fill="#2474A6" opacity="0.18"/>
  <circle cx="847.0" cy="417.0" r="3.2" fill="#2474A6" opacity="0.18"/>
  <circle cx="805.0" cy="436.0" r="3.2" fill="#2474A6" opacity="0.18"/>
  <circle cx="842.0" cy="436.0" r="3.2" fill="#2474A6" opacity="0.18"/>
  <circle cx="800.0" cy="417.0" r="3.2" fill="#2474A6" opacity="0.18"/>
  <circle cx="837.0" cy="455.0" r="3.2" fill="#2474A6" opacity="0.18"/>
  <circle cx="795.0" cy="417.0" r="3.2" fill="#2474A6" opacity="0.18"/>
  <circle cx="832.0" cy="417.0" r="3.2" fill="#2474A6" opacity="0.18"/>
  <circle cx="869.0" cy="455.0" r="3.2" fill="#2474A6" opacity="0.18"/>
  <circle cx="827.0" cy="455.0" r="3.2" fill="#2474A6" opacity="0.18"/>
  <circle cx="864.0" cy="455.0" r="3.2" fill="#2474A6" opacity="0.18"/>
  <circle cx="822.0" cy="417.0" r="3.2" fill="#2474A6" opacity="0.18"/>
  <circle cx="859.0" cy="417.0" r="3.2" fill="#2474A6" opacity="0.18"/>
  <circle cx="817.0" cy="417.0" r="3.2" fill="#2474A6" opacity="0.18"/>
  <circle cx="854.0" cy="455.0" r="3.2" fill="#2474A6" opacity="0.18"/>
  <circle cx="812.0" cy="417.0" r="3.2" fill="#C85A16" opacity="0.46"/>
  <circle cx="849.0" cy="417.0" r="3.2" fill="#2474A6" opacity="0.18"/>
  <circle cx="807.0" cy="417.0" r="3.2" fill="#2474A6" opacity="0.18"/>
  <circle cx="844.0" cy="417.0" r="3.2" fill="#2474A6" opacity="0.18"/>
  <circle cx="802.0" cy="417.0" r="3.2" fill="#2474A6" opacity="0.18"/>
  <line x1="833.0" y1="455.0" x2="833.0" y2="379.0" stroke="#17212B" stroke-width="1.5"/>
  <line x1="815.0" y1="455.0" x2="851.0" y2="455.0" stroke="#17212B" stroke-width="1.5"/>
  <line x1="815.0" y1="379.0" x2="851.0" y2="379.0" stroke="#17212B" stroke-width="1.5"/>
  <rect x="803.0" y="417.0" width="60" height="38.0" fill="#FFFFFF" stroke="#17212B" stroke-width="2"/>
  <line x1="803.0" y1="417.0" x2="863.0" y2="417.0" stroke="#17212B" stroke-width="3"/>
  <polygon points="833.0,420.34 840.0,427.34 833.0,434.34 826.0,427.34" fill="#18835D" stroke="#FFFFFF" stroke-width="1"/>
  <text x="833.0" y="488" font-size="14" font-weight="500" fill="#17212B" text-anchor="middle">Emotional valence</text>
  <text x="833.0" y="510" font-size="12" font-weight="400" fill="#5D6975" text-anchor="middle">individual triggers n=0</text>
  <text x="833.0" y="535" font-size="11" font-weight="400" fill="#5D6975" text-anchor="middle">median 0.100 · mean 0.073</text>
  <line x1="969.0" y1="227.0" x2="1113.0" y2="227.0" stroke="#C85A16" stroke-width="2" stroke-dasharray="6 4"/>
  <text x="1115.0" y="231.0" font-size="11" font-weight="400" fill="#C85A16" text-anchor="start">0.60</text>
  <circle cx="1046.0" cy="208.0" r="3.2" fill="#C85A16" opacity="0.46"/>
  <circle cx="1004.0" cy="202.3" r="3.2" fill="#C85A16" opacity="0.46"/>
  <circle cx="1041.0" cy="202.3" r="3.2" fill="#C85A16" opacity="0.46"/>
  <circle cx="1078.0" cy="208.0" r="3.2" fill="#C85A16" opacity="0.46"/>
  <circle cx="1036.0" cy="202.3" r="3.2" fill="#C85A16" opacity="0.46"/>
  <circle cx="1073.0" cy="208.0" r="3.2" fill="#C85A16" opacity="0.46"/>
  <circle cx="1031.0" cy="208.0" r="3.2" fill="#C85A16" opacity="0.46"/>
  <circle cx="1068.0" cy="208.0" r="3.2" fill="#C85A16" opacity="0.46"/>
  <circle cx="1026.0" cy="202.3" r="3.2" fill="#C85A16" opacity="0.46"/>
  <circle cx="1063.0" cy="299.2" r="3.2" fill="#2474A6" opacity="0.18"/>
  <circle cx="1021.0" cy="299.2" r="3.2" fill="#2474A6" opacity="0.18"/>
  <circle cx="1058.0" cy="202.3" r="3.2" fill="#C85A16" opacity="0.46"/>
  <circle cx="1016.0" cy="208.0" r="3.2" fill="#C85A16" opacity="0.46"/>
  <circle cx="1053.0" cy="202.3" r="3.2" fill="#C85A16" opacity="0.46"/>
  <circle cx="1011.0" cy="293.5" r="3.2" fill="#2474A6" opacity="0.18"/>
  <circle cx="1048.0" cy="293.5" r="3.2" fill="#2474A6" opacity="0.18"/>
  <circle cx="1006.0" cy="299.2" r="3.2" fill="#2474A6" opacity="0.18"/>
  <circle cx="1043.0" cy="293.5" r="3.2" fill="#2474A6" opacity="0.18"/>
  <circle cx="1080.0" cy="299.2" r="3.2" fill="#2474A6" opacity="0.18"/>
  <circle cx="1038.0" cy="293.5" r="3.2" fill="#2474A6" opacity="0.18"/>
  <circle cx="1075.0" cy="296.35" r="3.2" fill="#2474A6" opacity="0.18"/>
  <circle cx="1033.0" cy="293.5" r="3.2" fill="#2474A6" opacity="0.18"/>
  <circle cx="1070.0" cy="293.5" r="3.2" fill="#2474A6" opacity="0.18"/>
  <circle cx="1028.0" cy="293.5" r="3.2" fill="#2474A6" opacity="0.18"/>
  <circle cx="1065.0" cy="293.5" r="3.2" fill="#2474A6" opacity="0.18"/>
  <circle cx="1023.0" cy="247.9" r="3.2" fill="#2474A6" opacity="0.18"/>
  <circle cx="1060.0" cy="293.5" r="3.2" fill="#2474A6" opacity="0.18"/>
  <circle cx="1018.0" cy="293.5" r="3.2" fill="#2474A6" opacity="0.18"/>
  <circle cx="1055.0" cy="293.5" r="3.2" fill="#2474A6" opacity="0.18"/>
  <circle cx="1013.0" cy="299.2" r="3.2" fill="#2474A6" opacity="0.18"/>
  <circle cx="1050.0" cy="301.17" r="3.2" fill="#2474A6" opacity="0.18"/>
  <circle cx="1008.0" cy="303.63" r="3.2" fill="#2474A6" opacity="0.18"/>
  <circle cx="1045.0" cy="229.43" r="3.2" fill="#C85A16" opacity="0.46"/>
  <circle cx="1003.0" cy="293.5" r="3.2" fill="#C85A16" opacity="0.46"/>
  <circle cx="1040.0" cy="298.96" r="3.2" fill="#C85A16" opacity="0.46"/>
  <circle cx="1077.0" cy="256.38" r="3.2" fill="#2474A6" opacity="0.18"/>
  <circle cx="1035.0" cy="306.98" r="3.2" fill="#2474A6" opacity="0.18"/>
  <circle cx="1072.0" cy="304.41" r="3.2" fill="#2474A6" opacity="0.18"/>
  <circle cx="1030.0" cy="310.39" r="3.2" fill="#2474A6" opacity="0.18"/>
  <circle cx="1067.0" cy="298.12" r="3.2" fill="#C85A16" opacity="0.46"/>
  <circle cx="1025.0" cy="304.15" r="3.2" fill="#2474A6" opacity="0.18"/>
  <circle cx="1062.0" cy="305.41" r="3.2" fill="#2474A6" opacity="0.18"/>
  <circle cx="1020.0" cy="303.28" r="3.2" fill="#2474A6" opacity="0.18"/>
  <circle cx="1057.0" cy="303.53" r="3.2" fill="#2474A6" opacity="0.18"/>
  <circle cx="1015.0" cy="303.68" r="3.2" fill="#2474A6" opacity="0.18"/>
  <circle cx="1052.0" cy="309.38" r="3.2" fill="#2474A6" opacity="0.18"/>
  <circle cx="1010.0" cy="309.96" r="3.2" fill="#2474A6" opacity="0.18"/>
  <circle cx="1047.0" cy="296.98" r="3.2" fill="#C85A16" opacity="0.46"/>
  <circle cx="1005.0" cy="311.46" r="3.2" fill="#2474A6" opacity="0.18"/>
  <circle cx="1042.0" cy="300.9" r="3.2" fill="#2474A6" opacity="0.18"/>
  <circle cx="1079.0" cy="304.27" r="3.2" fill="#2474A6" opacity="0.18"/>
  <circle cx="1037.0" cy="310.95" r="3.2" fill="#2474A6" opacity="0.18"/>
  <circle cx="1074.0" cy="312.0" r="3.2" fill="#2474A6" opacity="0.18"/>
  <circle cx="1032.0" cy="298.29" r="3.2" fill="#2474A6" opacity="0.18"/>
  <circle cx="1069.0" cy="211.56" r="3.2" fill="#C85A16" opacity="0.46"/>
  <circle cx="1027.0" cy="287.67" r="3.2" fill="#2474A6" opacity="0.18"/>
  <circle cx="1064.0" cy="296.91" r="3.2" fill="#C85A16" opacity="0.46"/>
  <circle cx="1022.0" cy="302.22" r="3.2" fill="#2474A6" opacity="0.18"/>
  <circle cx="1059.0" cy="303.34" r="3.2" fill="#2474A6" opacity="0.18"/>
  <circle cx="1017.0" cy="298.93" r="3.2" fill="#2474A6" opacity="0.18"/>
  <circle cx="1054.0" cy="265.71" r="3.2" fill="#2474A6" opacity="0.18"/>
  <circle cx="1012.0" cy="311.59" r="3.2" fill="#2474A6" opacity="0.18"/>
  <circle cx="1049.0" cy="307.32" r="3.2" fill="#2474A6" opacity="0.18"/>
  <circle cx="1007.0" cy="302.83" r="3.2" fill="#2474A6" opacity="0.18"/>
  <circle cx="1044.0" cy="311.36" r="3.2" fill="#2474A6" opacity="0.18"/>
  <circle cx="1002.0" cy="302.95" r="3.2" fill="#2474A6" opacity="0.18"/>
  <circle cx="1039.0" cy="302.64" r="3.2" fill="#2474A6" opacity="0.18"/>
  <circle cx="1076.0" cy="313.22" r="3.2" fill="#2474A6" opacity="0.18"/>
  <circle cx="1034.0" cy="244.42" r="3.2" fill="#2474A6" opacity="0.18"/>
  <circle cx="1071.0" cy="217.36" r="3.2" fill="#C85A16" opacity="0.46"/>
  <circle cx="1029.0" cy="305.16" r="3.2" fill="#2474A6" opacity="0.18"/>
  <circle cx="1066.0" cy="304.26" r="3.2" fill="#2474A6" opacity="0.18"/>
  <circle cx="1024.0" cy="308.42" r="3.2" fill="#2474A6" opacity="0.18"/>
  <circle cx="1061.0" cy="286.7" r="3.2" fill="#2474A6" opacity="0.18"/>
  <circle cx="1019.0" cy="307.63" r="3.2" fill="#2474A6" opacity="0.18"/>
  <circle cx="1056.0" cy="292.95" r="3.2" fill="#2474A6" opacity="0.18"/>
  <circle cx="1014.0" cy="302.44" r="3.2" fill="#2474A6" opacity="0.18"/>
  <circle cx="1051.0" cy="302.44" r="3.2" fill="#2474A6" opacity="0.18"/>
  <circle cx="1009.0" cy="310.61" r="3.2" fill="#2474A6" opacity="0.18"/>
  <circle cx="1046.0" cy="315.52" r="3.2" fill="#2474A6" opacity="0.18"/>
  <circle cx="1004.0" cy="316.12" r="3.2" fill="#2474A6" opacity="0.18"/>
  <circle cx="1041.0" cy="308.34" r="3.2" fill="#2474A6" opacity="0.18"/>
  <circle cx="1078.0" cy="308.07" r="3.2" fill="#2474A6" opacity="0.18"/>
  <circle cx="1036.0" cy="305.59" r="3.2" fill="#2474A6" opacity="0.18"/>
  <circle cx="1073.0" cy="313.87" r="3.2" fill="#2474A6" opacity="0.18"/>
  <circle cx="1031.0" cy="297.84" r="3.2" fill="#C85A16" opacity="0.46"/>
  <circle cx="1068.0" cy="305.69" r="3.2" fill="#2474A6" opacity="0.18"/>
  <circle cx="1026.0" cy="306.77" r="3.2" fill="#2474A6" opacity="0.18"/>
  <circle cx="1063.0" cy="308.02" r="3.2" fill="#2474A6" opacity="0.18"/>
  <circle cx="1021.0" cy="304.85" r="3.2" fill="#2474A6" opacity="0.18"/>
  <line x1="1041.0" y1="316.12" x2="1041.0" y2="202.3" stroke="#17212B" stroke-width="1.5"/>
  <line x1="1023.0" y1="316.12" x2="1059.0" y2="316.12" stroke="#17212B" stroke-width="1.5"/>
  <line x1="1023.0" y1="202.3" x2="1059.0" y2="202.3" stroke="#17212B" stroke-width="1.5"/>
  <rect x="1011.0" y="293.5" width="60" height="12.05" fill="#FFFFFF" stroke="#17212B" stroke-width="2"/>
  <line x1="1011.0" y1="299.2" x2="1071.0" y2="299.2" stroke="#17212B" stroke-width="3"/>
  <polygon points="1041.0,277.43 1048.0,284.43 1041.0,291.43 1034.0,284.43" fill="#18835D" stroke="#FFFFFF" stroke-width="1"/>
  <text x="1041.0" y="488" font-size="14" font-weight="500" fill="#17212B" text-anchor="middle">Weighted score</text>
  <text x="1041.0" y="510" font-size="12" font-weight="400" fill="#5D6975" text-anchor="middle">weighted-route n=12</text>
  <text x="1041.0" y="535" font-size="11" font-weight="400" fill="#5D6975" text-anchor="middle">median 0.410 · mean 0.449</text>
  <circle cx="115" cy="574" r="4" fill="#2474A6" opacity="0.35"/>
  <text x="128" y="579" font-size="13" font-weight="400" fill="#5D6975" text-anchor="start">not promoted</text>
  <circle cx="250" cy="574" r="4" fill="#C85A16" opacity="0.65"/>
  <text x="263" y="579" font-size="13" font-weight="400" fill="#5D6975" text-anchor="start">promoted</text>
  <polygon points="365,567 372,574 365,581 358,574" fill="#18835D"/>
  <text x="380" y="579" font-size="13" font-weight="400" fill="#5D6975" text-anchor="start">mean</text>
  <line x1="450" y1="574" x2="485" y2="574" stroke="#C85A16" stroke-width="2" stroke-dasharray="6 4"/>
  <text x="493" y="579" font-size="13" font-weight="400" fill="#5D6975" text-anchor="start">decision threshold</text>
  <text x="1145" y="579" font-size="12" font-weight="400" fill="#5D6975" text-anchor="end">box: Q1–Q3 · line: median · whiskers: min–max</text>
  </g>
</svg>
